<?xml version="1.0" standalone="no"?>
<!DOCTYPE svg PUBLIC "-//W3C//DTD SVG 20010904//EN"
 "http://www.w3.org/TR/2001/REC-SVG-20010904/DTD/svg10.dtd">
<svg version="1.0" xmlns="http://www.w3.org/2000/svg"
 width="1280.000000pt" height="1279.000000pt" viewBox="0 0 1280.000000 1279.000000"
 preserveAspectRatio="xMidYMid meet">

<g transform="translate(0.000000,1279.000000) scale(0.100000,-0.100000)"
fill="#000000" stroke="none">
<path d="M10 6398 l0 -6393 6390 0 6390 0 0 6393 0 6392 -6390 0 -6390 0 0
-6392z m7360 4272 c974 -86 1805 -791 2044 -1735 l23 -90 114 -71 c159 -100
284 -201 403 -325 l101 -106 95 -12 c930 -121 1705 -784 1965 -1681 58 -200
95 -460 95 -660 0 -112 -24 -332 -50 -461 -107 -530 -411 -1030 -832 -1366
-377 -301 -822 -475 -1307 -513 -184 -14 -7057 -14 -7237 0 -426 34 -801 163
-1149 396 -938 628 -1298 1845 -850 2879 188 435 518 818 920 1070 262 164
582 281 905 331 156 24 521 25 665 1 55 -9 102 -13 106 -9 3 4 18 43 34 87 39
113 122 284 188 392 290 467 750 806 1280 942 124 32 298 60 396 62 61 2 65 4
100 43 235 263 442 429 711 570 400 208 833 295 1280 256z m1390 -7837 c0
-148 1 -155 18 -141 35 30 87 43 172 43 72 -1 95 -5 148 -29 126 -58 200 -176
210 -331 11 -187 -75 -333 -231 -397 -28 -11 -72 -17 -133 -17 -83 -1 -97 2
-148 28 l-56 30 0 -25 0 -24 -150 0 -150 0 0 510 0 510 160 0 160 0 0 -157z
m-5900 90 c147 -244 298 -486 304 -487 4 0 74 112 156 249 l148 250 136 3 136
3 0 -486 0 -485 -150 0 -150 0 -2 212 -3 212 -102 -170 -101 -169 -72 1 c-49
1 -75 6 -81 15 -5 8 -51 81 -102 163 l-92 149 -3 -206 -2 -207 -150 0 -150 0
0 478 c0 263 3 482 7 485 3 4 64 7 135 7 111 0 129 -2 138 -17z m2250 -158 l0
-175 145 0 145 0 2 173 3 172 163 3 162 2 0 -485 0 -485 -165 0 -165 0 0 175
0 175 -145 0 -145 0 0 -175 0 -175 -165 0 -165 0 0 485 0 485 165 0 165 0 0
-175z m1275 -40 c125 -33 203 -89 252 -182 36 -67 57 -169 48 -230 l-6 -43
-260 0 -259 0 15 -24 c39 -59 155 -74 240 -31 51 25 55 25 95 -16 8 -9 39 -41
69 -72 l53 -55 -48 -36 c-74 -54 -155 -76 -284 -76 -232 0 -391 100 -444 281
-51 172 33 367 193 449 94 48 231 62 336 35z m930 -5 c22 -6 59 -18 82 -26
l41 -15 -35 -87 c-53 -132 -41 -123 -120 -96 -82 28 -208 33 -239 9 -18 -14
-18 -16 -2 -29 10 -7 59 -19 110 -26 51 -7 115 -19 143 -27 127 -38 189 -134
164 -253 -16 -77 -56 -123 -145 -167 -76 -37 -79 -38 -214 -41 -146 -4 -240
10 -328 48 l-42 19 19 48 c56 138 64 154 80 149 178 -60 289 -72 331 -38 33
27 12 38 -117 56 -62 9 -131 23 -153 31 -88 31 -134 85 -145 170 -19 142 86
252 275 289 41 8 252 -2 295 -14z m760 -4 c68 -21 136 -67 169 -115 52 -75 59
-116 64 -383 l4 -248 -151 0 -151 0 0 41 0 41 -25 -31 c-40 -47 -97 -64 -207
-59 -85 3 -100 6 -144 33 -26 17 -62 50 -79 74 -27 39 -30 50 -30 120 0 67 4
83 27 118 50 76 163 113 346 113 50 0 92 3 92 8 -1 13 -34 49 -57 61 -40 20
-152 13 -218 -14 -33 -14 -60 -25 -60 -25 -1 0 -23 45 -50 100 -48 97 -49 100
-30 114 25 18 133 54 200 66 68 12 239 4 300 -14z m-3890 -163 c38 -98 73
-188 79 -200 10 -20 21 2 90 177 l78 200 150 0 c116 0 149 -3 145 -12 -7 -18
-99 -245 -224 -553 -57 -143 -115 -278 -128 -300 -36 -62 -93 -115 -154 -143
-103 -47 -289 -39 -373 16 l-26 17 50 105 c27 57 50 106 52 107 2 2 16 -3 32
-12 44 -23 91 -29 124 -15 17 7 30 15 30 19 0 6 -150 372 -269 655 -22 54 -41
102 -41 107 0 5 71 9 158 9 l158 0 69 -177z m5535 -56 l5 -229 28 -24 c47 -40
114 -26 145 30 14 26 17 69 20 244 l4 212 154 0 154 0 0 -380 0 -380 -150 0
-150 0 0 30 0 29 -52 -32 c-46 -29 -60 -32 -145 -35 -121 -5 -183 17 -248 90
-71 79 -78 113 -83 401 -2 137 -1 255 2 263 5 12 32 14 158 12 l153 -3 5 -228z"/>
<path d="M4260 8824 c-42 -18 -86 -58 -108 -99 -16 -28 -17 -163 -20 -1667
l-2 -1638 23 -5 c12 -3 52 -5 87 -3 l65 3 5 1625 5 1625 1840 3 c1012 1 1850
0 1863 -3 l22 -5 0 -920 0 -920 85 0 85 0 -2 944 -3 944 -30 43 c-16 23 -48
52 -70 63 l-40 21 -1885 2 c-1668 2 -1889 1 -1920 -13z"/>
<path d="M4753 8250 c-66 -40 -64 -21 -61 -510 l3 -442 33 -29 32 -29 1396 0
c1274 0 1398 1 1424 16 61 36 60 31 60 496 0 407 -1 424 -20 456 -40 66 49 62
-1462 62 -1343 0 -1374 0 -1405 -20z m2717 -495 l0 -345 -1307 0 -1308 0 2
342 c2 189 3 344 3 346 0 1 587 2 1305 2 l1305 0 0 -345z"/>
<path d="M8935 7760 l-89 -89 142 -3 142 -3 -1397 -1397 c-959 -958 -1407
-1399 -1425 -1404 -16 -3 -38 -4 -51 0 -14 3 -237 229 -526 530 -276 288 -509
527 -517 530 -9 3 -28 6 -43 6 -31 0 -79 -48 -476 -465 -318 -334 -593 -623
-725 -760 -588 -613 -600 -627 -600 -665 0 -44 39 -80 86 -80 33 0 45 8 103
68 80 82 228 237 375 392 61 63 146 153 191 200 144 151 514 540 709 745 320
336 297 315 343 315 40 0 45 -4 279 -248 463 -480 681 -707 719 -750 48 -54
88 -76 124 -67 17 4 524 504 1494 1473 l1467 1467 0 -145 0 -145 85 85 85 85
0 207 0 208 -203 0 -202 0 -90 -90z"/>
<path d="M5764 6607 c-11 -7 -14 -49 -14 -236 0 -200 2 -230 16 -235 24 -9
827 -7 842 2 9 7 12 61 10 238 l-3 229 -418 5 c-230 3 -425 1 -433 -3z"/>
<path d="M4617 6603 c-4 -3 -7 -109 -7 -234 0 -198 2 -228 16 -233 24 -9 827
-7 842 2 9 7 12 61 10 238 l-3 229 -426 3 c-234 1 -429 -1 -432 -5z"/>
<path d="M6910 6590 c-19 -19 -20 -33 -20 -219 l0 -200 26 -20 c25 -20 39 -21
273 -21 l246 0 162 162 163 163 0 51 c0 37 -6 59 -21 78 l-20 26 -395 0 c-381
0 -395 -1 -414 -20z"/>
<path d="M5776 5769 c-25 -20 -26 -24 -26 -127 l0 -107 111 -118 111 -117 293
0 293 0 31 26 31 26 0 194 c0 194 0 195 -25 219 l-24 25 -384 0 c-374 0 -385
-1 -411 -21z"/>
<path d="M8809 2475 c-50 -27 -74 -131 -45 -198 19 -45 48 -68 95 -74 48 -7
82 12 111 60 24 39 27 125 5 167 -28 55 -109 76 -166 45z"/>
<path d="M6191 2491 c-57 -53 -46 -61 84 -61 77 0 115 4 115 11 0 6 -15 26
-34 45 -30 30 -40 34 -84 34 -41 0 -55 -5 -81 -29z"/>
<path d="M7875 2260 c-18 -3 -35 -15 -44 -31 -13 -24 -13 -29 2 -53 15 -22 25
-26 63 -26 36 0 50 5 69 26 14 15 25 39 25 54 0 26 -4 28 -43 31 -24 2 -56 2
-72 -1z"/>
</g>
</svg>
